# xmcd
#
# Track frame offsets: 
#        183
#        15233
#        32995
#
# Disc length: 652 seconds
#
# Revision: 1
# Processed by: cddbd v1.5.1PL2 Copyright (c) Steve Scherf et al.
# Submitted via: ExactAudioCopy v0.95b3
#
DISCID=17028a03
DTITLE=Mathou - Sarah (Maxi-CD)
DYEAR=1993
DGENRE=Blues
TTITLE0=Sarah
TTITLE1=Seagull
TTITLE2=Hello
EXTD=
EXTT0=
EXTT1=
EXTT2=
PLAYORDER=
